<svg width="32" height="32" viewBox="0 0 32 32" fill="none" xmlns="http://www.w3.org/2000/svg">
<path d="M31.8043 2.95414C31.7439 2.95092 31.6814 2.97409 31.6364 3.03083L18.0412 19.898C18.0172 19.9277 18.0021 19.9635 17.9978 20.0014C17.9934 20.0392 17.9999 20.0775 18.0165 20.1118C18.0331 20.1462 18.0592 20.1751 18.0917 20.1953C18.1242 20.2156 18.1618 20.2263 18.2002 20.2262H28.024C28.2899 20.2262 28.5395 20.1072 28.7049 19.9012L31.8087 16.0517C31.9319 15.8972 32 15.7067 32 15.5104V3.15657C32 3.03788 31.9048 2.95935 31.8043 2.95414ZM0.195095 2.95542C0.0945377 2.96048 0 3.0379 0 3.1566V15.5104C0 15.7068 0.0680544 15.8972 0.191293 16.0517L10.404 28.7211C10.5694 28.9271 10.819 29.0462 11.0849 29.0462H20.9081C21.08 29.0462 21.1741 28.8499 21.0671 28.718L0.362952 3.03086C0.317953 2.97534 0.255428 2.95238 0.195095 2.95542V2.95542Z" fill="#F34983"/>
</svg>
